# xmcd
#
# Track frame offsets:
#	150
#	27489
#	51721
#	70483
#	90834
#	112773
#	128397
#	148132
#	175886
#	214730
#
# Disc length: 3226 seconds
#
# Revision: 1
# Processed by: cddbd v1.5.2PL0 Copyright (c) Steve Scherf et al.
# Submitted via: EasyCDDAExtractor 15.3.0.1
#
DISCID=8c0c980a
DTITLE=Pandora - XXV Años En Vivo - CD 2
DYEAR=2011
DGENRE=Latin
TTITLE0=Popurri Pandora (Cuando No Estas Conmigo, Como Una Mariposa, Mi Hombre
TTITLE0=, No Puedo Dejar De Pensar En Ti)
TTITLE1=Ojala
TTITLE2=Rota
TTITLE3=Una Historia Sin Miedo
TTITLE4=Las Mil Y Una Noches (A Dueto Con Flans)
TTITLE5=Te Voy A Olvidar
TTITLE6=La Diferencia
TTITLE7=Te Pareces Tanto A Mi
TTITLE8=Como Te Va Mi Amor
TTITLE9=Popurri Juan Gabriel (Debo Hacerlo, Caray, Querida, Me Nace Del Corazo
TTITLE9=n)
EXTD=
EXTT0=
EXTT1=
EXTT2=
EXTT3=
EXTT4=
EXTT5=
EXTT6=
EXTT7=
EXTT8=
EXTT9=
PLAYORDER=
